HIERARCHY
ROOT Hips
{
	OFFSET 0.000000 0.000000 0.000000
	CHANNELS 6 Xposition Yposition Zposition Zrotation Yrotation Xrotation 
	JOINT LowerBack
	{
		OFFSET 0.000000 0.000000 0.000000
		CHANNELS 3 Zrotation Yrotation Xrotation
		JOINT Spine
		{
			OFFSET 0.028270 2.035590 -0.193380
			CHANNELS 3 Zrotation Yrotation Xrotation
			JOINT Spine1
			{
				OFFSET 0.056720 2.048850 -0.042750
				CHANNELS 3 Zrotation Yrotation Xrotation
				JOINT Neck
				{
					OFFSET 0.000000 0.000000 0.000000
					CHANNELS 3 Zrotation Yrotation Xrotation
					JOINT Neck1
					{
						OFFSET -0.054170 1.746240 0.172020
						CHANNELS 3 Zrotation Yrotation Xrotation
						JOINT Head
						{
							OFFSET 0.104070 1.761360 -0.123970
							CHANNELS 3 Zrotation Yrotation Xrotation
							End Site
							{
								OFFSET 0.000000 0.000000 0.000000
							}
						}
					}
				}
				JOINT LeftShoulder
				{
					OFFSET 0.000000 0.000000 0.000000
					CHANNELS 3 Zrotation Yrotation Xrotation
					JOINT LeftArm
					{
						OFFSET 3.362410 1.200890 -0.311210
						CHANNELS 3 Zrotation Yrotation Xrotation
						JOINT LeftForeArm
						{
							OFFSET 4.983000 -0.000000 -0.000000
							CHANNELS 3 Zrotation Yrotation Xrotation
							JOINT LeftHand
							{
								OFFSET 3.483560 -0.000000 -0.000000
								CHANNELS 3 Zrotation Yrotation Xrotation
								JOINT LeftFingerBase
								{
									OFFSET 0.000000 0.000000 0.000000
									CHANNELS 3 Zrotation Yrotation Xrotation
									JOINT LeftHandIndex1
									{
										OFFSET 0.715260 -0.000000 -0.000000
										CHANNELS 3 Zrotation Yrotation Xrotation
										End Site
										{
											OFFSET 0.000000 0.000000 0.000000
										}
									}
								}
								JOINT LThumb
								{
									OFFSET 0.000000 0.000000 0.000000
									CHANNELS 3 Zrotation Yrotation Xrotation
									End Site
									{
										OFFSET 0.000000 0.000000 0.000000
									}
								}
							}
						}
					}
				}
				JOINT RightShoulder
				{
					OFFSET 0.000000 0.000000 0.000000
					CHANNELS 3 Zrotation Yrotation Xrotation
					JOINT RightArm
					{
						OFFSET -3.136600 1.374050 -0.404650
						CHANNELS 3 Zrotation Yrotation Xrotation
						JOINT RightForeArm
						{
							OFFSET -5.241900 -0.000000 -0.000000
							CHANNELS 3 Zrotation Yrotation Xrotation
							JOINT RightHand
							{
								OFFSET -3.444170 -0.000000 -0.000000
								CHANNELS 3 Zrotation Yrotation Xrotation
								JOINT RightFingerBase
								{
									OFFSET 0.000000 0.000000 0.000000
									CHANNELS 3 Zrotation Yrotation Xrotation
									JOINT RightHandIndex1
									{
										OFFSET -0.622530 -0.000000 -0.000000
										CHANNELS 3 Zrotation Yrotation Xrotation
										End Site
										{
											OFFSET 0.000000 0.000000 0.000000
										}
									}
								}
								JOINT RThumb
								{
									OFFSET 0.000000 0.000000 0.000000
									CHANNELS 3 Zrotation Yrotation Xrotation
									End Site
									{
										OFFSET 0.000000 0.000000 0.000000
									}
								}
							}
						}
					}
				}
			}
		}
	}
}
}
MOTION
Frames: 8
Frame Time: 0.008333
-20.526282 16.691980 -0.201655 2.473649 81.749132 32.729023 -8.319912 0.953358 2.145983 -3.238160 1.293563 -2.547368 -8.370559 1.147698 0.634175 6.658395 8.310470 5.243932 -5.828166 -0.476978 2.814412 0.000000 0.000000 0.000000 -5.399032 -4.008605 2.548780 -53.482711 -14.070038 9.523298 -4.248286 -15.969173 -0.004422 1.287460 2.161648 0.026080 -0.107717 0.058701 0.000000 0.000000 0.000000 0.000000 0.000000 0.000000 0.000000 22.216847 5.697663 -0.252264 69.577015 14.219136 3.203951 2.309570 22.438588 0.004987 -0.015923 9.178687 -0.003189 0.027597 -0.111515 -0.000000 0.000000 0.000000 0.000000 0.000000 0.000000 0.000000 
-20.375122 16.718224 -0.224123 2.173765 81.546932 32.527273 -8.434489 0.988429 2.172759 -3.266151 1.334625 -2.537764 -8.337033 1.189262 0.640207 6.440312 8.315463 5.312241 -5.823614 -0.476782 2.826322 0.000000 0.000000 0.000000 -5.431442 -4.247628 2.559096 -53.773395 -14.841435 8.848754 -4.262255 -14.335968 -0.005187 1.307418 2.495392 0.030356 -0.104887 0.067238 0.000000 0.000000 0.000000 0.000000 0.000000 0.000000 0.000000 21.988611 5.679355 -0.264789 69.581474 13.916486 3.833710 2.294067 22.931620 0.004997 0.111874 9.103204 0.007208 0.026391 -0.111293 -0.000000 0.000000 0.000000 0.000000 0.000000 0.000000 0.000000 
-20.225048 16.744350 -0.245849 1.897561 81.341354 32.347067 -8.540262 1.011062 2.189891 -3.292618 1.363122 -2.527215 -8.311672 1.218497 0.655437 6.233222 8.337275 5.359465 -5.822073 -0.476486 2.832437 0.000000 0.000000 0.000000 -5.461610 -4.383298 2.570977 -54.053711 -15.726118 8.238745 -4.269545 -12.746542 -0.005948 1.386986 2.796089 0.035736 -0.102050 0.076127 0.000000 0.000000 0.000000 0.000000 0.000000 0.000000 0.000000 21.790384 5.681544 -0.280727 69.571060 13.640617 4.485880 2.282748 23.424030 0.005051 0.331113 9.004353 0.024802 0.024429 -0.110637 -0.000000 0.000000 0.000000 0.000000 0.000000 0.000000 0.000000 
-20.076544 16.770524 -0.266551 1.719244 81.149768 32.256386 -8.641358 1.017443 2.204839 -3.318252 1.375434 -2.516381 -8.294055 1.231449 0.670596 6.044095 8.361736 5.393090 -5.824430 -0.476234 2.835117 0.000000 0.000000 0.000000 -5.478521 -4.491022 2.587087 -54.322613 -16.619018 7.676674 -4.266881 -11.289707 -0.006707 1.524667 3.061934 0.042619 -0.099002 0.084862 0.000000 0.000000 0.000000 0.000000 0.000000 0.000000 0.000000 21.632607 5.684763 -0.293923 69.540656 13.400888 5.170810 2.274286 23.907609 0.005127 0.615548 8.894869 0.047094 0.021865 -0.109713 -0.000000 0.000000 0.000000 0.000000 0.000000 0.000000 0.000000 
-19.929821 16.796889 -0.286119 1.692577 80.987868 32.301800 -8.740282 1.005379 2.225626 -3.343156 1.369445 -2.506665 -8.281980 1.225551 0.673316 5.877831 8.381351 5.425794 -5.830584 -0.476158 2.838204 0.000000 0.000000 0.000000 -5.467171 -4.660081 2.610466 -54.585497 -17.397162 7.128358 -4.251610 -10.060573 -0.007465 1.714529 3.295528 0.051003 -0.095574 0.092945 0.000000 0.000000 0.000000 0.000000 0.000000 0.000000 0.000000 21.518429 5.677278 -0.297342 69.487967 13.193851 5.883317 2.267328 24.379848 0.005209 0.937859 8.786439 0.071787 0.018876 -0.108738 -0.000000 0.000000 0.000000 0.000000 0.000000 0.000000 0.000000 
-19.784874 16.823656 -0.304765 1.822461 80.865139 32.482881 -8.830889 0.974071 2.263197 -3.365978 1.344124 -2.492740 -8.276728 1.200543 0.674478 5.737231 8.398371 5.447279 -5.838801 -0.476000 2.838572 0.000000 0.000000 0.000000 -5.453857 -4.813818 2.639708 -54.823293 -18.171074 6.730843 -4.231130 -9.022873 -0.008209 1.941804 3.473672 0.060291 -0.092332 0.100375 0.000000 0.000000 0.000000 0.000000 0.000000 0.000000 0.000000 21.442977 5.662250 -0.299289 69.416968 13.017817 6.583507 2.259629 24.856763 0.005272 1.282766 8.686232 0.097778 0.015483 -0.107742 -0.000000 0.000000 0.000000 0.000000 0.000000 0.000000 0.000000 
-19.641656 16.851019 -0.322791 2.109455 80.788681 32.793402 -8.909300 0.924968 2.324044 -3.385445 1.300676 -2.475475 -8.275563 1.157356 0.665542 5.622481 8.405898 5.467812 -5.848319 -0.475832 2.839363 0.000000 0.000000 0.000000 -5.431148 -5.016631 2.675688 -55.045315 -18.854291 6.453394 -4.204960 -8.238701 -0.008920 2.191621 3.599953 0.069882 -0.089245 0.106846 0.000000 0.000000 0.000000 0.000000 0.000000 0.000000 0.000000 21.401174 5.630971 -0.295126 69.326983 12.867979 7.265459 2.250282 25.336417 0.005307 1.619337 8.605133 0.122770 0.011953 -0.106943 -0.000000 0.000000 0.000000 0.000000 0.000000 0.000000 0.000000 
-19.500255 16.879088 -0.340724 2.502422 80.761401 33.179109 -8.962777 0.861544 2.411785 -3.398479 1.241918 -2.454274 -8.276699 1.098898 0.646316 5.529822 8.397515 5.489327 -5.857814 -0.475611 2.841353 0.000000 0.000000 0.000000 -5.406450 -5.278105 2.716950 -55.255532 -19.436772 6.295502 -4.175134 -7.718824 -0.009564 2.444732 3.670392 0.078976 -0.086461 0.112274 0.000000 0.000000 0.000000 0.000000 0.000000 0.000000 0.000000 21.381561 5.577733 -0.285034 69.220053 12.744418 7.919835 2.238853 25.815651 0.005315 1.917568 8.554771 0.144860 0.008581 -0.106509 -0.000000 0.000000 0.000000 0.000000 0.000000 0.000000 0.000000 
